<?xml version="1.0" standalone="no"?>
<!DOCTYPE svg PUBLIC "-//W3C//DTD SVG 20010904//EN"
 "http://www.w3.org/TR/2001/REC-SVG-20010904/DTD/svg10.dtd">
<svg version="1.0" xmlns="http://www.w3.org/2000/svg"
 width="2000.000000pt" height="2000.000000pt" viewBox="0 0 2000.000000 2000.000000"
 preserveAspectRatio="xMidYMid meet">
<metadata>
Created by potrace 1.14, written by Peter Selinger 2001-2017
</metadata>
<g transform="translate(0.000000,2000.000000) scale(0.100000,-0.100000)"
fill="#000000" stroke="none">
<path d="M1206 19991 c-5 -13 1 -9140 7 -9211 3 -41 9 -127 12 -190 3 -63 8
-133 10 -155 2 -22 7 -76 10 -120 3 -44 8 -96 10 -115 2 -19 7 -62 10 -95 4
-33 8 -71 10 -85 2 -14 7 -52 11 -85 3 -33 7 -67 9 -75 1 -8 6 -40 10 -70 4
-30 9 -62 10 -70 3 -16 14 -85 21 -135 9 -62 26 -155 56 -305 16 -85 32 -164
34 -175 18 -96 115 -481 165 -655 82 -288 267 -825 353 -1025 7 -16 30 -70 51
-120 39 -93 46 -109 136 -310 174 -390 458 -911 725 -1333 32 -52 68 -108 79
-126 32 -51 139 -211 145 -216 3 -3 23 -32 45 -65 90 -134 335 -468 449 -611
23 -28 52 -66 66 -84 14 -18 30 -38 35 -44 6 -6 62 -74 125 -151 63 -77 117
-142 120 -145 3 -3 32 -36 65 -75 33 -38 64 -75 70 -81 5 -6 37 -41 70 -79 33
-37 76 -85 95 -105 19 -21 82 -89 140 -151 223 -241 714 -720 910 -889 14 -12
54 -48 90 -80 36 -32 76 -68 90 -80 14 -12 36 -31 50 -43 14 -12 66 -56 115
-97 50 -41 92 -77 95 -80 3 -3 30 -25 60 -50 30 -25 57 -47 60 -50 3 -3 25
-21 50 -40 25 -19 47 -37 50 -41 3 -3 100 -79 215 -168 116 -88 215 -165 220
-169 6 -4 33 -24 60 -45 28 -20 55 -40 60 -45 6 -4 71 -51 145 -104 74 -53
154 -110 177 -127 74 -54 525 -355 623 -416 329 -204 412 -255 415 -255 2 0
33 -18 69 -40 36 -22 70 -40 76 -40 5 0 10 -4 10 -8 0 -4 12 -13 28 -19 28
-12 103 -54 112 -63 3 -3 23 -14 45 -26 22 -12 72 -38 110 -59 271 -149 594
-310 811 -405 76 -33 153 -67 169 -74 60 -27 315 -126 325 -126 6 0 18 -4 28
-9 9 -6 64 -24 122 -42 93 -29 121 -33 241 -36 75 -1 149 2 165 7 16 5 74 23
129 41 181 56 405 144 660 259 120 55 601 293 645 320 8 5 62 35 120 66 152
82 187 102 265 147 106 61 489 290 500 299 8 7 308 199 362 233 9 6 24 15 32
22 9 6 68 46 131 89 97 65 433 300 465 326 6 5 96 72 200 151 187 141 435 334
445 346 3 3 39 33 80 66 41 33 84 67 95 76 42 35 121 102 145 123 14 12 77 66
140 121 63 55 120 104 126 110 6 5 53 48 105 95 352 320 611 578 1024 1024 6
6 39 44 75 85 36 41 72 82 80 91 31 34 78 88 150 175 41 50 77 92 80 95 3 3
28 33 55 68 28 35 59 73 70 86 11 12 31 38 45 56 14 18 43 56 66 84 147 184
494 665 494 686 0 4 4 10 9 12 11 4 251 375 251 388 0 6 5 10 10 10 6 0 10 4
10 9 0 8 31 61 130 221 7 13 85 149 153 270 99 176 296 568 382 760 26 58 53
119 60 135 87 191 224 543 307 785 73 212 203 641 222 730 3 14 15 61 26 105
22 85 85 360 94 409 3 16 10 52 15 80 6 28 13 63 15 79 3 15 7 35 10 45 3 9 7
35 11 57 3 22 10 65 15 95 9 52 14 84 24 148 3 15 8 47 11 72 3 25 8 56 10 70
2 14 6 48 10 75 3 28 10 84 15 125 5 41 12 102 15 135 3 33 8 78 10 100 3 22
8 72 10 110 6 100 15 221 21 290 8 84 12 9325 5 9327 -18 4 -17582 4 -17585
-1z"/>
</g>
</svg>
